HIERARCHY
ROOT Hips
{
    OFFSET 0 0 0
    CHANNELS 6 Xposition Yposition Zposition Zrotation Xrotation Yrotation 
    JOINT LeftHip
    {
        OFFSET 3.3 0 0
        CHANNELS 3 Zrotation Xrotation Yrotation 
        JOINT LeftKnee
        {
            OFFSET 0 -17.8 0
            CHANNELS 1 Xrotation 
            End Site
            {
                OFFSET 0 -16.03 0
            }
        }
    }
    JOINT RightHip
    {
        OFFSET -3.3 0 0
        CHANNELS 3 Zrotation Xrotation Yrotation 
        JOINT RightKnee
        {
            OFFSET 0 -17.7 0
            CHANNELS 1 Xrotation 
            End Site
            {
                OFFSET 0 -16.1 0
            }
        }
    }
    JOINT Chest
    {
        OFFSET 0 4.41 0
        CHANNELS 3 Zrotation Xrotation Yrotation 
        JOINT Neck
        {
            OFFSET 0 16.76 0
            CHANNELS 2 Zrotation Xrotation 
            JOINT Head
            {
                OFFSET 0 4.4 0
                CHANNELS 3 Zrotation Xrotation Yrotation 
                End Site
                {
                    OFFSET 0 3.31 0
                }
            }
        }
        JOINT LeftCollar
        {
            OFFSET 1.01 14.58 1.68
            CHANNELS 2 Zrotation Yrotation 
            JOINT LeftShoulder
            {
                OFFSET 5.89 0 0
                CHANNELS 3 Zrotation Xrotation Yrotation 
                JOINT LeftElbow
                {
                    OFFSET 0 -11.63 0
                    CHANNELS 1 Xrotation 
                    End Site
                    {
                        OFFSET 0 -9.24 0
                    }
                }
            }
        }
        JOINT RightCollar
        {
            OFFSET -1.01 14.58 1.68
            CHANNELS 2 Zrotation Yrotation 
            JOINT RightShoulder
            {
                OFFSET -6.39 0 0
                CHANNELS 3 Zrotation Xrotation Yrotation 
                JOINT RightElbow
                {
                    OFFSET 0 -11.08 0
                    CHANNELS 1 Xrotation 
                    End Site
                    {
                        OFFSET 0 -9.13 0
                    }
                }
            }
        }
    }
}
MOTION
Frames:  14
Frame Time: 0.033333
-0.128346	29.6399	0.465852	-2.20027	-5.5613	0.271486	-1.33718	-1.67384	-6.85162	7.17488	0.00832795	-11.9094	-1.41638	59.3869	-2.8103	4.05911	3.85031	2.13833	35.6415	-3.84625	-37.0898	0	-16.2893	25.6617	30.0385	-16.2592	-55.4627	-17.9739	22.2157	-23.0233	-42.812	-7.63492	69.4687	-35.8448	
-0.0759393	29.7262	1.71	-2.71211	-5.70831	0.647266	-0.711067	1.70506	-4.36343	6.19752	0.614703	-14.1559	-1.62208	56.0046	-2.13857	4.49313	2.10483	3.03308	36.8274	-4.43434	-36.1306	0	-15.4993	24.8381	28.1052	-21.2521	-53.4299	-19.1667	22.0946	-22.9878	-43.6796	-5.19234	73.9161	-34.4985	
-0.0308167	29.7633	3.0182	-3.03498	-6.43754	1.67207	0.0743793	6.8242	5.92594	2.96349	1.20804	-18.4147	-2.40919	48.3068	-1.687	5.14214	-0.136659	4.76847	39.0585	-5.70097	-35.2203	0	-14.919	23.8076	27.1531	-25.9191	-49.0462	-22.25	21.9997	-22.8773	-44.5126	-2.62622	78.2458	-31.8301	
0.0132644	29.7048	4.27698	-2.75191	-6.20971	4.26236	0.330769	9.90029	17.8734	1.56481	0.439155	-21.5309	-3.85283	39.4134	-1.85505	5.15733	-3.07342	6.21112	40.6727	-6.95496	-36.4436	0	-14.5457	22.6503	26.8187	-30.5028	-45.3292	-26.3253	22.5943	-23.1727	-45.9354	-0.352487	82.1557	-29.5403	
0.046618	29.5664	5.50707	-2.08581	-5.38235	6.79634	0.46592	11.1679	18.8185	2.71659	-0.857243	-22.8729	-5.22528	29.965	-2.44946	4.74966	-5.41401	7.52078	41.4659	-7.75116	-38.015	0	-14.2628	21.7276	26.6205	-34.7272	-43.376	-29.7928	23.639	-23.5887	-47.7115	1.59058	87.0126	-27.7402	
0.051698	29.3056	6.90255	-1.37656	-5.17137	8.20302	0.750685	12.2035	12.6237	6.72343	-1.65513	-22.6842	-5.44005	19.7652	-3.14854	4.8916	-6.28255	9.02564	41.6027	-7.81517	-37.6275	0	-13.7595	21.2471	26.2899	-38.0043	-42.4999	-31.3607	24.62	-23.7155	-49.1554	3.29924	95.4066	-26.1751	
0.0690929	28.7014	8.772	-0.0806888	-5.48117	10.1863	0.598694	12.9072	4.34048	15.0317	-2.88945	-22.0131	-2.61396	8.30175	-3.87488	5.6154	-6.9413	10.0968	41.044	-7.37927	-35.7332	0	-13.0312	21.2106	25.682	-39.9448	-42.3684	-32.2314	25.4306	-23.696	-50.2145	5.44113	104.237	-24.9589	
0.357928	27.2952	17.7771	7.12908	-6.2384	13.3901	-4.24494	10.451	-3.33222	35.4315	-9.08365	-21.5687	4.02918	-0.543536	-4.20936	5.83951	-8.19273	10.0235	39.8443	-6.79312	-33.5743	0	-12.663	21.3594	25.252	-40.6089	-42.5336	-34.1016	25.9758	-23.6315	-50.9864	7.37487	109.458	-24.2859	
0.304972	27.8501	18.8399	6.56065	-6.13574	14.2912	-4.86877	6.92482	-9.29836	41.9337	-7.99993	-20.0795	8.24884	1.88145	-3.61356	5.2722	-9.15263	9.28863	38.8852	-6.17743	-31.979	0	-12.9216	21.654	25.3817	-40.1554	-42.2112	-37.0822	26.018	-23.5418	-51.5122	8.9488	107.747	-24.1216	
0.238575	28.3957	20.1419	5.62733	-6.2055	14.3226	-4.4356	4.25312	-10.7137	47.5638	-5.92245	-18.5252	9.63518	4.89148	-2.54488	4.58864	-9.31825	8.64598	39.071	-5.57285	-31.474	0	-13.2709	22.1179	25.9208	-38.4312	-41.4528	-40.6409	25.9049	-23.5856	-51.8306	9.87988	103.604	-24.3449	
0.176792	28.8775	21.6341	4.45639	-6.359	13.4573	-3.04019	2.66769	-9.07225	52.8867	-3.48716	-17.0292	7.04678	8.42733	-1.25678	3.90015	-8.69579	7.94979	39.5455	-4.9916	-31.4883	0	-13.6732	22.6139	26.7434	-35.5617	-41.151	-43.5703	25.5925	-23.5118	-51.5792	9.82385	103.131	-24.6978	
0.174713	29.2283	23.1192	3.01795	-6.24086	11.6101	-1.23203	0.81755	-6.36516	56.9234	-1.1054	-15.8253	4.40566	11.6094	0.643254	3.25816	-7.139	6.8504	39.0543	-4.44989	-31.2113	0	-14.3308	23.0361	27.5366	-32.1006	-41.1334	-44.7161	24.7888	-23.2479	-50.6389	8.81268	98.795	-24.9079	
0.203823	29.4928	24.5431	1.66922	-5.90907	9.75696	0.442739	-1.46412	-4.11159	59.7089	0.859214	-14.3449	2.93542	13.7485	2.55813	2.84985	-5.21751	5.96524	38.1636	-4.04444	-30.9873	0	-14.8668	23.3672	27.6786	-28.5821	-40.456	-45.0103	23.9537	-23.1862	-48.8669	7.13009	85.0928	-24.8887	
0.187415	29.7394	25.9613	0.98319	-5.74141	9.089	1.49003	-3.91431	-3.47127	61.3662	2.14337	-11.7799	2.92024	14.4804	3.37777	2.83807	-3.86242	6.14633	38.023	-3.88312	-31.485	0	-14.8055	23.4926	27.2721	-24.9589	-39.3098	-45.9547	23.5547	-23.4604	-46.4676	4.02854	71.5863	-24.6653	
